<?xml version="1.0" encoding="UTF-8"?>
<svg version="1.1" xmlns="http://www.w3.org/2000/svg" width="48" height="47">
<path d="M0 0 C5.46192411 0.25404298 8.11244521 2.28146933 12 6 C16 10.52631579 16 10.52631579 16 13 C16.84304687 12.98839844 17.68609375 12.97679687 18.5546875 12.96484375 C19.65039062 12.95582031 20.74609375 12.94679688 21.875 12.9375 C23.51082031 12.92009766 23.51082031 12.92009766 25.1796875 12.90234375 C28 13 28 13 30 14 C30 15.32 30 16.64 30 18 C26.7 18 23.4 18 20 18 C21.23448009 21.70344028 23.23334341 23.30250982 26 26 C27.97105392 29.94210784 27.45383884 34.70365901 27 39 C25.71456923 42.15570209 24.12048487 44.43975756 21 46 C19.33765189 46.14601706 17.66849493 46.22089834 16 46.25 C15.113125 46.27578125 14.22625 46.3015625 13.3125 46.328125 C12.549375 46.21984375 11.78625 46.1115625 11 46 C10.34 45.01 9.68 44.02 9 43 C9.33 42.01 9.66 41.02 10 40 C11.98 39.505 11.98 39.505 14 39 C14.33 34.38 14.66 29.76 15 25 C14.34 25 13.68 25 13 25 C12.90912109 26.39025391 12.90912109 26.39025391 12.81640625 27.80859375 C12.73261719 29.00613281 12.64882813 30.20367188 12.5625 31.4375 C12.48128906 32.63246094 12.40007813 33.82742187 12.31640625 35.05859375 C12 38 12 38 11 39 C4.69079465 39.46734854 4.69079465 39.46734854 2.28515625 37.83984375 C0.48793498 35.26692212 0.70298498 33.41542567 0.8125 30.3125 C0.83957031 29.31863281 0.86664062 28.32476563 0.89453125 27.30078125 C0.92933594 26.54152344 0.96414062 25.78226563 1 25 C0.34 25 -0.32 25 -1 25 C-1 30.28 -1 35.56 -1 41 C0.485 40.505 0.485 40.505 2 40 C2.99 40.66 3.98 41.32 5 42 C4.34 43.32 3.68 44.64 3 46 C-5.92989844 46.78028239 -5.92989844 46.78028239 -10 43.8125 C-13.65871326 38.66743447 -14.82478808 34.25570037 -14 28 C-12.36778499 24.32751622 -10.52392951 21.95773862 -7 20 C-1.58949215 18.6728943 1.88346034 19.22487399 7 21 C7.33 20.01 7.66 19.02 8 18 C0.08 18 -7.84 18 -16 18 C-16.33 16.35 -16.66 14.7 -17 13 C-9.41 12.67 -1.82 12.34 6 12 C4.02 11.01 2.04 10.02 0 9 C-2 6 -2 6 -1.6875 3.375 C-1 1 -1 1 0 0 Z " fill="#04F01A" transform="translate(17,0)"/>
<path d="M0 0 C-0.33 0.33 -0.66 0.66 -1 1 C-0.34 1.33 0.32 1.66 1 2 C1 2.99 1 3.98 1 5 C0.34 5 -0.32 5 -1 5 C-1 10.28 -1 15.56 -1 21 C-0.01 20.67 0.98 20.34 2 20 C2.99 20.66 3.98 21.32 5 22 C4.34 23.32 3.68 24.64 3 26 C-5.92989844 26.78028239 -5.92989844 26.78028239 -10 23.8125 C-13.65871326 18.66743447 -14.82478808 14.25570037 -14 8 C-12.35024446 4.28805003 -10.43479361 2.14674601 -7 0 C-3.86650268 -1.04449911 -3.01031744 -0.93423645 0 0 Z " fill="#02FB1B" transform="translate(17,20)"/>
<path d="M0 0 C3.98414752 3.85562663 5.16827938 5.69371094 5.3125 11.25 C5.27788997 16.52456813 4.50051899 19.08765524 1 23 C-1.52475462 24.26237731 -3.31200466 24.09856404 -6.125 24.0625 C-7.03507812 24.05347656 -7.94515625 24.04445313 -8.8828125 24.03515625 C-9.93082031 24.01775391 -9.93082031 24.01775391 -11 24 C-11.33 23.01 -11.66 22.02 -12 21 C-11.07767578 20.94392578 -11.07767578 20.94392578 -10.13671875 20.88671875 C-9.32847656 20.82097656 -8.52023438 20.75523438 -7.6875 20.6875 C-6.88699219 20.62949219 -6.08648437 20.57148437 -5.26171875 20.51171875 C-2.59936152 19.90935468 -1.68806452 19.10358809 0 17 C1.29060033 14.41879934 1.13272333 12.50580171 1.125 9.625 C1.12757812 8.66851562 1.13015625 7.71203125 1.1328125 6.7265625 C1.01551878 4.31859146 0.68675951 2.30009932 0 0 Z " fill="#443C08" transform="translate(39,22)"/>
<path d="M0 0 C0.99 0.33 1.98 0.66 3 1 C3 1.99 3 2.98 3 4 C2.34 4 1.68 4 1 4 C0.93941406 4.92683594 0.87882812 5.85367187 0.81640625 6.80859375 C0.73261719 8.00613281 0.64882813 9.20367187 0.5625 10.4375 C0.48128906 11.63246094 0.40007813 12.82742187 0.31640625 14.05859375 C0 17 0 17 -1 18 C-7.52542373 18.23728814 -7.52542373 18.23728814 -10 17 C-9.505 15.515 -9.505 15.515 -9 14 C-7.02 14 -5.04 14 -3 14 C-3.03480469 13.32453125 -3.06960937 12.6490625 -3.10546875 11.953125 C-3.13253906 11.06109375 -3.15960937 10.1690625 -3.1875 9.25 C-3.22230469 8.36828125 -3.25710937 7.4865625 -3.29296875 6.578125 C-2.94923684 3.55328417 -1.99772541 2.24416398 0 0 Z " fill="#2F6C0A" transform="translate(29,21)"/>
<path d="M0 0 C8.25 0 16.5 0 25 0 C25 0.99 25 1.98 25 3 C16.75 3 8.5 3 0 3 C0 2.01 0 1.02 0 0 Z " fill="#443A06" transform="translate(1,15)"/>
<path d="M0 0 C1.32 0 2.64 0 4 0 C4 0.99 4 1.98 4 3 C3.34 3 2.68 3 2 3 C2 8.28 2 13.56 2 19 C1.01 18.67 0.02 18.34 -1 18 C-2.41693757 15.16612485 -2.1699013 12.71970627 -2.1875 9.5625 C-2.20167969 8.40878906 -2.21585938 7.25507813 -2.23046875 6.06640625 C-2 3 -2 3 0 0 Z " fill="#44330A" transform="translate(14,22)"/>
<path d="M0 0 C0 1.32 0 2.64 0 4 C-3.3 4 -6.6 4 -10 4 C-10 4.99 -10 5.98 -10 7 C-10.99 7 -11.98 7 -13 7 C-13 5.02 -13 3.04 -13 1 C-11.20843648 0.83222817 -9.4167455 0.66581706 -7.625 0.5 C-6.62726562 0.4071875 -5.62953125 0.314375 -4.6015625 0.21875 C-2 0 -2 0 0 0 Z " fill="#423907" transform="translate(47,14)"/>
<path d="M0 0 C0.66 0.33 1.32 0.66 2 1 C2.02689216 2.47906892 2.04634621 3.95827483 2.0625 5.4375 C2.07410156 6.26121094 2.08570313 7.08492187 2.09765625 7.93359375 C2 10 2 10 1 11 C-5.52542373 11.23728814 -5.52542373 11.23728814 -8 10 C-8 9.34 -8 8.68 -8 8 C-5.36 8 -2.72 8 0 8 C0 5.36 0 2.72 0 0 Z " fill="#392A07" transform="translate(27,28)"/>
<path d="M0 0 C2.70331473 0.46342538 5.07550858 1.030563 7.625 2.0625 C10.0395214 3.18358327 10.0395214 3.18358327 13 3 C13.33 2.34 13.66 1.68 14 1 C15.5 2.375 15.5 2.375 17 4 C17 4.66 17 5.32 17 6 C10.89686656 6.51941561 6.29460564 5.11313722 1 2 C0.67 1.34 0.34 0.68 0 0 Z " fill="#403D07" transform="translate(16,7)"/>
<path d="M0 0 C0.66 0 1.32 0 2 0 C2.391875 0.495 2.78375 0.99 3.1875 1.5 C6.02238591 3.84611248 8.44453866 3.31188257 12 3 C14.35369807 2.11935073 14.35369807 2.11935073 16 1 C16 2.32 16 3.64 16 5 C14.35843264 6.64156736 12.50784199 6.28815992 10.25 6.375 C6.13524498 6.35731481 5.26884113 6.20969608 1.875 3.5625 C0 1 0 1 0 0 Z " fill="#423507" transform="translate(5,40)"/>
<path d="M0 0 C0.33 0 0.66 0 1 0 C1 2.97 1 5.94 1 9 C1.66 9 2.32 9 3 9 C3.33 11.31 3.66 13.62 4 16 C3.01 15.67 2.02 15.34 1 15 C-0.44207941 12.11584117 -0.09394887 9.58278472 -0.0625 6.375 C-0.05347656 5.18648437 -0.04445313 3.99796875 -0.03515625 2.7734375 C-0.02355469 1.85820312 -0.01195312 0.94296875 0 0 Z " fill="#32590A" transform="translate(12,25)"/>
<path d="M0 0 C3.3 0 6.6 0 10 0 C10 0.99 10 1.98 10 3 C7.03 3 4.06 3 1 3 C0.67 2.01 0.34 1.02 0 0 Z " fill="#3B4E09" transform="translate(27,43)"/>
<path d="M0 0 C0.66 0.66 1.32 1.32 2 2 C-1.6441774 4.4294516 -3.71241272 4.16179575 -8 4 C-5.42910583 1.88819408 -3.36939433 0.33693943 0 0 Z " fill="#11C612" transform="translate(18,40)"/>
<path d="M0 0 C1.32 0 2.64 0 4 0 C4 0.99 4 1.98 4 3 C3.34 3 2.68 3 2 3 C1.67 3.99 1.34 4.98 1 6 C1 5.01 1 4.02 1 3 C0.34 3 -0.32 3 -1 3 C-0.67 2.01 -0.34 1.02 0 0 Z " fill="#394708" transform="translate(14,22)"/>
</svg>
